<svg width="40" height="40" viewBox="0 0 40 40" fill="none" xmlns="http://www.w3.org/2000/svg">
  <rect width="40" height="40" rx="8" fill="#181717"/>
  <path d="M20 7C13.373 7 8 12.373 8 19C8 24.302 11.438 28.8 16.207 30.387C16.806 30.496 17.026 30.126 17.026 29.807C17.026 29.521 17.015 28.656 17.01 27.743C13.672 28.475 12.968 26.394 12.968 26.394C12.421 24.977 11.634 24.609 11.634 24.609C10.546 23.859 11.717 23.873 11.717 23.873C12.922 23.955 13.555 25.112 13.555 25.112C14.625 26.909 16.364 26.38 17.048 26.076C17.155 25.302 17.466 24.774 17.81 24.477C15.145 24.176 12.343 23.145 12.343 18.667C12.343 17.333 12.812 16.243 13.579 15.389C13.455 15.089 13.043 13.863 13.695 12.228C13.695 12.228 14.704 11.903 16.995 13.439C17.954 13.179 18.98 13.048 20 13.044C21.02 13.048 22.047 13.179 23.006 13.439C25.296 11.903 26.304 12.228 26.304 12.228C26.957 13.863 26.545 15.089 26.421 15.389C27.189 16.243 27.656 17.333 27.656 18.667C27.656 23.156 24.849 24.172 22.177 24.467C22.607 24.838 22.99 25.569 22.99 26.686C22.99 28.301 22.976 29.606 22.976 29.807C22.976 30.129 23.192 30.502 23.8 30.386C28.566 28.797 32 24.301 32 19C32 12.373 26.627 7 20 7Z" fill="white"/>
</svg>
